<?xml version="1.0" standalone="no"?>
<!DOCTYPE svg PUBLIC "-//W3C//DTD SVG 20010904//EN"
 "http://www.w3.org/TR/2001/REC-SVG-20010904/DTD/svg10.dtd">
<svg version="1.0" xmlns="http://www.w3.org/2000/svg"
 width="424.000000pt" height="424.000000pt" viewBox="0 0 424.000000 424.000000"
 preserveAspectRatio="xMidYMid meet">
<metadata>
Created by potrace 1.11, written by Peter Selinger 2001-2013
</metadata>
<g transform="translate(0.000000,424.000000) scale(0.100000,-0.100000)"
fill="#000000" stroke="none">
<path d="M1845 3717 c-112 -49 -224 -161 -275 -273 -45 -98 -54 -138 -54 -244
0 -88 3 -112 22 -149 27 -55 27 -63 1 -87 -39 -35 -176 -209 -214 -273 -5 -9
-29 -47 -53 -84 -54 -85 -175 -316 -197 -377 -9 -25 -21 -54 -25 -65 -20 -47
-40 -156 -40 -216 0 -122 49 -275 116 -364 43 -58 147 -147 201 -173 49 -23
38 -44 -32 -62 -33 -9 -74 -24 -91 -33 -75 -39 -144 -161 -144 -254 0 -77 20
-123 79 -183 l53 -55 -5 -130 c-5 -126 -18 -189 -51 -253 -21 -40 -20 -42 9
-42 15 0 25 6 25 14 0 7 6 18 13 25 17 13 38 -5 30 -26 -4 -11 17 -13 132 -11
l138 3 -2 105 c-2 111 12 175 42 194 38 24 77 -63 77 -175 0 -37 3 -81 6 -98
l7 -31 633 0 633 0 3 72 3 73 35 -70 35 -70 153 -3 c86 -1 152 1 152 7 0 5
-15 33 -32 63 -18 29 -41 74 -52 98 -10 25 -22 54 -27 65 -20 48 -47 145 -54
193 -7 50 -6 53 28 87 58 58 81 118 81 210 -1 67 -5 89 -28 133 -55 107 -141
175 -261 207 -32 8 -60 16 -62 19 -2 2 10 19 27 37 47 51 108 183 126 274 38
190 -8 439 -123 670 -146 291 -412 585 -620 686 -44 21 -63 36 -63 49 0 10 4
21 9 24 5 3 15 44 21 90 21 140 -11 268 -88 350 -68 73 -200 96 -297 53z m-5
-112 c0 -16 -55 -39 -76 -31 -14 5 -14 9 -3 22 26 32 79 38 79 9z m-110 -66
c0 -12 -26 -46 -64 -83 -56 -55 -63 -67 -58 -92 3 -16 12 -39 19 -51 16 -23
11 -89 -9 -127 -9 -17 -11 -17 -26 -2 -13 13 -17 35 -16 104 0 77 4 94 31 147
36 70 75 110 121 124 1 1 2 -8 2 -20z m-25 -139 c0 -9 -11 -16 -27 -18 -30 -4
-36 6 -16 26 16 16 43 11 43 -8z m488 -307 c-1 -6 6 -9 17 -6 11 3 20 0 20 -6
0 -6 7 -11 15 -11 8 0 15 -4 15 -10 0 -5 -7 -10 -15 -10 -8 0 -15 -7 -15 -15
0 -25 -27 -28 -51 -6 -13 12 -29 21 -36 21 -19 0 -16 17 7 33 11 8 17 17 12
21 -4 5 2 6 13 4 11 -2 19 -9 18 -15z m24 -376 c23 -14 49 -44 63 -70 24 -45
24 -47 7 -82 -24 -51 -75 -71 -259 -100 -84 -14 -181 -30 -214 -36 -34 -6
-113 -11 -175 -12 -131 -1 -154 8 -194 78 -35 59 -33 97 8 131 39 33 100 61
161 74 25 6 67 15 94 21 68 15 262 28 373 24 82 -2 102 -7 136 -28z m-865 -93
c-166 -283 -244 -592 -198 -784 21 -88 53 -138 145 -227 74 -73 84 -85 69 -94
-10 -6 -18 -19 -18 -30 0 -18 -2 -19 -29 -4 -16 8 -51 33 -77 56 -133 115
-191 255 -181 434 8 128 41 225 154 450 33 67 51 97 125 216 40 65 49 49 10
-17z m692 -686 c13 -142 7 -155 -79 -161 l-30 -2 -3 114 c-2 72 1 118 8 126
10 13 60 24 85 20 6 -1 14 -45 19 -97z m-136 -37 c2 -68 -1 -118 -7 -124 -14
-14 -50 18 -67 60 -15 34 -19 164 -7 177 4 4 23 6 43 4 l35 -3 3 -114z m-436
-454 c11 -16 18 -30 16 -33 -3 -2 -26 4 -51 13 -42 15 -46 20 -40 43 3 14 8
29 10 33 6 10 38 -18 65 -56z m-42 -143 c0 -23 5 -46 10 -49 6 -3 10 -14 10
-23 0 -15 -2 -15 -10 -2 -5 8 -10 12 -10 8 0 -3 -3 -13 -6 -21 -3 -10 2 -14
18 -13 13 1 39 -10 58 -25 46 -36 107 -69 126 -69 8 0 12 -4 9 -10 -4 -6 7
-10 25 -10 17 0 39 -4 48 -9 42 -22 245 -33 392 -21 80 6 156 15 170 20 14 4
58 14 98 21 40 7 75 16 78 21 3 4 14 8 24 8 23 0 130 54 159 81 21 19 21 19
21 0 0 -14 -22 -30 -84 -60 -46 -23 -93 -41 -104 -41 -12 0 -23 -4 -26 -8 -3
-5 -38 -14 -78 -21 -40 -7 -89 -18 -108 -24 -52 -16 -522 -16 -527 1 -3 7 -21
12 -43 12 -21 0 -42 5 -45 10 -3 6 -17 10 -31 10 -13 0 -24 5 -24 10 0 6 -13
10 -30 10 -16 0 -30 5 -30 11 0 5 4 8 9 4 5 -3 13 0 17 6 5 8 0 10 -18 6 -18
-5 -33 -1 -51 13 -14 11 -29 20 -34 20 -23 0 -50 68 -52 127 -1 57 0 61 19 56
16 -4 20 -14 20 -49z m-281 -116 c-20 -37 -29 -67 -29 -100 0 -27 -4 -48 -10
-48 -13 0 -13 61 0 94 10 28 58 106 64 106 2 0 -9 -24 -25 -52z m-20 -203 c0
-5 -4 -3 -9 5 -5 8 -9 22 -9 30 0 16 17 -16 18 -35z m432 -117 c16 -30 2 -58
-30 -58 -56 0 -82 68 -31 80 32 8 48 3 61 -22z m-332 -374 c-24 -29 -28 3 -11
76 l17 75 3 -69 c2 -42 -2 -73 -9 -82z"/>
<path d="M2173 3063 c9 -2 23 -2 30 0 6 3 -1 5 -18 5 -16 0 -22 -2 -12 -5z"/>
<path d="M2192 3036 c7 -8 15 -12 17 -11 5 6 -10 25 -20 25 -5 0 -4 -6 3 -14z"/>
</g>
</svg>
